# Fluxio 测试报告

> 测试时间：2026-03-23  
> 测试环境：http://localhost:4000/（Fluxio 主入口已迁至根路径）  
> 依据文档：product-spec-final.md、FLUXIO-INTERACTION-FINAL.md

---

## 一、测试结果概览

| 项目 | 结果 |
|------|------|
| **总用例** | 6 |
| **通过** | 6 |
| **失败** | 0 |
| **通过率** | 100% |

---

## 二、用例明细

| # | 用例 | 结果 | 说明 |
|---|------|------|------|
| 1 | Fluxio 页面 200 OK | ✓ PASS | HTML 6414 字节，含 Fluxio 内容 |
| 2 | Fluxio 路由 SPA 回退 | ✓ PASS | /、/tasks/:id 均返回 200；/fluxio 301 跳转 |
| 3 | API /api/jobs | ✓ PASS | 返回 success + data 数组 |
| 4 | 无效 taskId 路由 | ✓ PASS | 页面正常返回，前端负责错误态 |
| 5 | 队列 API POST /api/queue | ✓ PASS | 提交转换任务成功 |
| 6 | 转换完成 | ✓ PASS | PNG→WebP 成功，输出 1770175546860-hds4j4i.webp (220 B) |

---

## 三、日志验证

**最新转换日志**：`logs/1774237932521-b0ucs.log`

```
Input #0, png_pipe, from '.../1770175546860-hds4j4i.png'
Stream #0:0: Video: png, rgba(pc), 88x88, 25 fps
Output #0, webp, to '.../1770175546860-hds4j4i.webp'
Stream #0:0: Video: webp, bgra(pc), 88x88
Process exited with code 0
```

- FFmpeg 8.0 正常执行
- PNG 88×88 正确读取
- WebP 输出成功，exit code 0

---

## 四、行为与规格对照

| 规格项 | 测试验证 |
|--------|----------|
| 路由 /、/tasks/:taskId | ✓ SPA 回退正确 |
| API /api/jobs、/api/queue | ✓ 格式与行为符合 |
| 转换链路：上传文件 → 队列 → FFmpeg → 输出 | ✓ 全流程通过 |
| 直接访问无效路由 | ✓ 不崩溃，返回 200（前端显示错误态） |

---

## 五、运行方式

```bash
# 确保服务器已启动
npm start   # 或 node server.js

# 运行测试
node test-fluxio.js

# 指定 Base URL
node test-fluxio.js --base http://localhost:4000
```

---

## 六、结论

**Fluxio 当前版本（http://localhost:4000/）功能正常**，满足产品规格与交互文档要求：

- 页面可访问
- 路由与 SPA 回退正确
- 后端 API 工作正常
- 转换流程（上传 → 队列 → FFmpeg → 输出）完整可用
- 日志记录完整，输出文件正确生成
